<svg xmlns="http://www.w3.org/2000/svg" xmlns:xlink="http://www.w3.org/1999/xlink" viewBox="0 0 16 14"><defs><style>.cls-1{fill:#fff;}.cls-2{mask:url(#mask);}.cls-3{fill:#7d9cb8;}</style><mask id="mask" x="-1" y="0" width="18" height="1045" maskUnits="userSpaceOnUse"><g id="b"><path id="a" class="cls-1" d="M-1,0H17V1045H-1Z"/></g></mask></defs><title>home_icon</title><g id="Слой_2" data-name="Слой 2"><g id="Слой_1-2" data-name="Слой 1"><g class="cls-2"><path class="cls-3" d="M8.65.3A.86.86,0,0,0,7.34.3l-7.13,7c-.4.4-.2.69.31.69L2,8v5c0,1,0,1,1,1H5.5a.5.5,0,0,0,.5-.49V10a2,2,0,0,1,4,0v3.51a.49.49,0,0,0,.5.49H13c1,0,1,0,1-1V8l1.58-.06c.4-.1.6-.39.2-.69Z"/></g></g></g></svg>