<svg xmlns="http://www.w3.org/2000/svg" viewBox="0 0 16.79 8.42"><title>logo_2</title><g fill="#ffffff" id="Слой_2" data-name="Слой 2"><g id="Слой_2-2" data-name="Слой 2"><path d="M4,0A3.61,3.61,0,0,1,5.47.32a4.08,4.08,0,0,1,1.16.78,3.91,3.91,0,0,1,.79,1.16A3.6,3.6,0,0,1,7.7,3.68,3.38,3.38,0,0,1,7.44,5a4,4,0,0,1-.73,1.17A3.66,3.66,0,0,1,5.5,7,3.6,3.6,0,0,1,4,7.34H1.91V8.42H0V0ZM4,5.42a1.72,1.72,0,0,0,.68-.13,1.92,1.92,0,0,0,.56-.36,1.85,1.85,0,0,0,.38-.56,1.67,1.67,0,0,0,.13-.67A1.72,1.72,0,0,0,5.65,3a2,2,0,0,0-.38-.56,1.64,1.64,0,0,0-.55-.38A1.72,1.72,0,0,0,4,1.94H2c-.09,0-.13.05-.13.14V5.3c0,.08,0,.12.13.12Z"/><path d="M13.12,0a3.61,3.61,0,0,1,1.42.29,3.87,3.87,0,0,1,1.17.78,3.89,3.89,0,0,1,.79,1.17,3.65,3.65,0,0,1,.29,1.43,3.39,3.39,0,0,1-.22,1.23A3.58,3.58,0,0,1,16,6a3.56,3.56,0,0,1-1.54,1.1l.51,1.33H12.85l-.38-1a.11.11,0,0,0-.1-.07H10.73c-.07,0-.1,0-.1.11v1H8.71V0Zm0,5.41a1.56,1.56,0,0,0,.68-.14,1.76,1.76,0,0,0,.56-.37,1.64,1.64,0,0,0,.38-.55,1.72,1.72,0,0,0,.14-.68A1.76,1.76,0,0,0,14.72,3a1.57,1.57,0,0,0-.37-.55,1.76,1.76,0,0,0-1.23-.52H10.73c-.07,0-.1,0-.1.11V5.32c0,.06,0,.09.1.09Z"/></g></g></svg>