<svg xmlns="http://www.w3.org/2000/svg" viewBox="0 0 45.18 8.42">
	<title>logo</title>
	<g fill="#fff" id="Слой_2" data-name="Слой 2"><g id="Слой_1-2" data-name="Слой 1">
		<path d="M4,0A3.61,3.61,0,0,1,5.47.32a4.08,4.08,0,0,1,1.16.78,3.91,3.91,0,0,1,.79,1.16A3.6,3.6,0,0,1,7.7,3.68,3.38,3.38,0,0,1,7.44,5a4,4,0,0,1-.73,1.17A3.66,3.66,0,0,1,5.5,7,3.6,3.6,0,0,1,4,7.34H1.91V8.42H0V0ZM4,5.42a1.72,1.72,0,0,0,.68-.13,1.92,1.92,0,0,0,.56-.36,1.85,1.85,0,0,0,.38-.56,1.67,1.67,0,0,0,.13-.67A1.72,1.72,0,0,0,5.65,3a2,2,0,0,0-.38-.56,1.64,1.64,0,0,0-.55-.38A1.72,1.72,0,0,0,4,1.94H2c-.09,0-.13.05-.13.14V5.3c0,.08,0,.12.13.12Z"/><path d="M13.12,0a3.61,3.61,0,0,1,1.42.29,3.87,3.87,0,0,1,1.17.78,3.89,3.89,0,0,1,.79,1.17,3.65,3.65,0,0,1,.29,1.43,3.39,3.39,0,0,1-.22,1.23A3.58,3.58,0,0,1,16,6a3.56,3.56,0,0,1-1.54,1.1l.51,1.33H12.85l-.38-1a.11.11,0,0,0-.1-.07H10.73c-.07,0-.1,0-.1.11v1H8.71V0Zm0,5.41a1.56,1.56,0,0,0,.68-.14,1.76,1.76,0,0,0,.56-.37,1.64,1.64,0,0,0,.38-.55,1.72,1.72,0,0,0,.14-.68A1.76,1.76,0,0,0,14.72,3a1.57,1.57,0,0,0-.37-.55,1.76,1.76,0,0,0-1.23-.52H10.73c-.07,0-.1,0-.1.11V5.32c0,.06,0,.09.1.09Z"/><path d="M25.44,8.42h-2l-.31-.85A.11.11,0,0,0,23,7.49H19.36a.12.12,0,0,0-.11.08l-.3.85h-2l3-8.41h2.49ZM20,5.41a.11.11,0,0,0,0,.11.12.12,0,0,0,.1.05h2.07c.11,0,.14-.05.11-.16l-1-2.88a.14.14,0,0,0-.12-.08.11.11,0,0,0-.11.08Z"/><path d="M33.1,0V8.42H31.39l-3-4.65s0,0,0,0,0,0,0,0V8.42H26.42V0h1.74l3,4.41s0,0,0,0,0,0,0,0V0Z"/><path d="M36.73,0V8.42H34.81V0Z"/><path d="M41.53,4.21l3.65,4.21H42.65L40.2,5.59a.11.11,0,0,0-.13,0,.12.12,0,0,0-.08.12V8.42H38V0h2V2.76a.11.11,0,0,0,.08.11.13.13,0,0,0,.13,0L42.65,0h2.53Z"/></g></g></svg>