<svg viewBox="0 0 112 84" xmlns="http://www.w3.org/2000/svg" xmlns:xlink="http://www.w3.org/1999/xlink"><svg width="28" height="28" viewBox="0 0 28 28" id="menu_28" x="28" xmlns="http://www.w3.org/2000/svg"><defs><path d="M5.5 8a1 1 0 1 1 0 -2h17a1 1 0 0 1 0 2h-17zm0 7a1 1 0 0 1 0 -2h17a1 1 0 0 1 0 2h-17zm0 7a1 1 0 0 1 0 -2h17a1 1 0 0 1 0 2h-17z" id="aa"/></defs><g fill="none" fill-rule="evenodd"><path opacity=".04" d="M0 0h28v28H0z"/><use fill="#99A2AD" fill-rule="nonzero" xlink:href="#aa"/></g></svg><svg width="28" height="28" viewBox="0 0 28 28" id="menu_active_28" x="56" y="28" xmlns="http://www.w3.org/2000/svg"><defs><path d="M5 7.5a1 1 0 1 1 0 -2h18a1 1 0 0 1 0 2H5zM5 15a1 1 0 0 1 0 -2h18a1 1 0 0 1 0 2H5zm0 7.5a1 1 0 0 1 0 -2h18a1 1 0 0 1 0 2H5z" id="ba"/></defs><g fill="none" fill-rule="evenodd"><path opacity=".04" d="M0 0h28v28H0z"/><use fill="#2975CC" fill-rule="nonzero" xlink:href="#ba"/></g></svg><svg width="28" height="28" viewBox="0 0 28 28" id="messages_28" y="28" xmlns="http://www.w3.org/2000/svg"><defs><path d="M3.952 25.001a1.434 1.434 0 0 1 -1.363 -2.023c0.911 -2.015 1.413 -3.498 1.514 -4.379C3.062 17.073 2.5 15.323 2.5 13.5c0 -5.56 5.18 -10 11.5 -10s11.5 4.44 11.5 10 -5.18 10 -11.5 10c-1.355 0 -2.678 -0.204 -3.924 -0.597 -1.402 1.306 -3.458 1.994 -6.124 2.098zm5.085 -3.9a1 1 0 0 1 1.111 -0.287c1.202 0.45 2.506 0.686 3.852 0.686 5.278 0 9.5 -3.619 9.5 -8s-4.222 -8 -9.5 -8 -9.5 3.619 -9.5 8c0 1.508 0.497 2.955 1.426 4.213a1 1 0 0 1 0.196 0.598c-0.004 1.047 -0.45 2.567 -1.33 4.627 1.987 -0.208 3.388 -0.831 4.245 -1.837z" id="ca"/></defs><g fill="none" fill-rule="evenodd"><path opacity=".04" d="M0 0h28v28H0z"/><use fill="#99A2AD" fill-rule="nonzero" xlink:href="#ca"/></g></svg><svg width="28" height="28" viewBox="0 0 28 28" id="messages_active_28" x="28" y="28" xmlns="http://www.w3.org/2000/svg"><defs><path d="M3.659 25.443a1.544 1.544 0 0 1 -1.472 -2.173c0.767 -1.717 1.305 -3.134 1.615 -4.238 -1.143 -1.638 -1.762 -3.53 -1.762 -5.503C2.04 7.68 7.432 3 14.02 3 20.607 3 26 7.68 26 13.529s-5.393 10.529 -11.98 10.529c-1.284 0 -2.541 -0.178 -3.736 -0.522 -1.644 1.17 -3.859 1.797 -6.625 1.907zm5.791 -3.786a1 1 0 0 1 0.953 -0.177c1.142 0.38 2.363 0.578 3.617 0.578 5.54 0 9.98 -3.853 9.98 -8.53C24 8.854 19.56 5 14.02 5c-5.541 0 -9.98 3.853 -9.98 8.529 0 1.686 0.574 3.3 1.641 4.684a1 1 0 0 1 0.18 0.846c-0.277 1.15 -0.793 2.595 -1.547 4.342 2.251 -0.182 3.957 -0.772 5.136 -1.744z" id="da"/></defs><g fill="none" fill-rule="evenodd"><path opacity=".04" d="M0 0h28v28H0z"/><use fill="#2975CC" fill-rule="nonzero" xlink:href="#da"/></g></svg><svg width="28" height="28" viewBox="0 0 28 28" id="newsfeed_28" x="56" xmlns="http://www.w3.org/2000/svg"><defs><path d="M22.5 9v-0.654c0 -1.068 -0.073 -1.449 -0.283 -1.84a1.726 1.726 0 0 0 -0.723 -0.723c-0.391 -0.21 -0.772 -0.283 -1.84 -0.283H8.346c-1.068 0 -1.449 0.073 -1.84 0.283a1.727 1.727 0 0 0 -0.723 0.723c-0.21 0.391 -0.283 0.772 -0.283 1.84V9h17zm0 2h-17v8.654c0 1.068 0.073 1.449 0.283 1.84 0.168 0.314 0.409 0.555 0.723 0.723 0.391 0.21 0.772 0.283 1.84 0.283h11.308c1.068 0 1.449 -0.073 1.84 -0.283 0.314 -0.168 0.555 -0.409 0.723 -0.723 0.21 -0.391 0.283 -0.772 0.283 -1.84V11zM8.346 3.5h11.308c1.37 0 2.063 0.134 2.783 0.519 0.663 0.355 1.19 0.881 1.544 1.544 0.385 0.72 0.519 1.413 0.519 2.783v11.308c0 1.37 -0.134 2.063 -0.519 2.783a3.726 3.726 0 0 1 -1.544 1.544c-0.72 0.385 -1.413 0.519 -2.783 0.519H8.346c-1.37 0 -2.063 -0.134 -2.783 -0.519a3.726 3.726 0 0 1 -1.544 -1.544c-0.385 -0.72 -0.519 -1.413 -0.519 -2.783V8.346c0 -1.37 0.134 -2.063 0.519 -2.783A3.726 3.726 0 0 1 5.563 4.02c0.72 -0.385 1.413 -0.519 2.783 -0.519z" id="ea"/></defs><g fill="none" fill-rule="evenodd"><path opacity=".04" d="M0 0h28v28H0z"/><use fill="#99A2AD" fill-rule="nonzero" xlink:href="#ea"/></g></svg><svg width="28" height="28" viewBox="0 0 28 28" id="newsfeed_active_28" xmlns="http://www.w3.org/2000/svg"><defs><path d="M23 9V7.846c0 -1.068 -0.073 -1.449 -0.283 -1.84a1.726 1.726 0 0 0 -0.723 -0.723c-0.391 -0.21 -0.772 -0.283 -1.84 -0.283H7.846c-1.068 0 -1.449 0.073 -1.84 0.283a1.727 1.727 0 0 0 -0.723 0.723c-0.21 0.391 -0.283 0.772 -0.283 1.84V9h18zm0 2H5v9.154c0 1.068 0.073 1.449 0.283 1.84 0.168 0.314 0.409 0.555 0.723 0.723 0.391 0.21 0.772 0.283 1.84 0.283h12.308c1.068 0 1.449 -0.073 1.84 -0.283 0.314 -0.168 0.555 -0.409 0.723 -0.723 0.21 -0.391 0.283 -0.772 0.283 -1.84V11zM7.846 3h12.308c1.37 0 2.063 0.134 2.783 0.519 0.663 0.355 1.19 0.881 1.544 1.544 0.385 0.72 0.519 1.413 0.519 2.783v12.308c0 1.37 -0.134 2.063 -0.519 2.783a3.726 3.726 0 0 1 -1.544 1.544c-0.72 0.385 -1.413 0.519 -2.783 0.519H7.846c-1.37 0 -2.063 -0.134 -2.783 -0.519a3.726 3.726 0 0 1 -1.544 -1.544C3.134 22.217 3 21.524 3 20.154V7.846c0 -1.37 0.134 -2.063 0.519 -2.783A3.726 3.726 0 0 1 5.063 3.52C5.783 3.134 6.476 3 7.846 3z" id="fa"/></defs><g fill="none" fill-rule="evenodd"><path opacity=".04" d="M0 0h28v28H0z"/><use fill="#2975CC" fill-rule="nonzero" xlink:href="#fa"/></g></svg><svg width="28" height="28" viewBox="0 0 28 28" id="notifications_28" y="56" xmlns="http://www.w3.org/2000/svg"><defs><path d="M19.995 13.907L20 12.08c0 -3.72 -2.611 -6.58 -5.995 -6.58C10.618 5.5 8 8.362 8 12.079v1.828c0 0.928 -0.384 1.617 -1.212 2.592a44.99 44.99 0 0 1 -0.28 0.328c-0.76 0.88 -1.008 1.298 -1.008 1.761 0 0.226 0.016 0.347 0.068 0.457 0.124 0.264 0.488 0.455 1.432 0.455h14c0.914 0 1.286 -0.192 1.423 -0.46 0.059 -0.117 0.077 -0.241 0.077 -0.452 0 -0.463 -0.248 -0.88 -1.009 -1.76l-0.282 -0.328c-0.828 -0.976 -1.214 -1.665 -1.214 -2.593zM18.4 21.5c-0.669 2.264 -2.187 3.5 -4.4 3.5s-3.731 -1.236 -4.4 -3.5H7c-1.665 0 -2.758 -0.574 -3.242 -1.604 -0.21 -0.446 -0.258 -0.809 -0.258 -1.308 0 -1.113 0.425 -1.83 1.493 -3.068 0.139 -0.16 0.203 -0.235 0.27 -0.314 0.539 -0.635 0.737 -0.99 0.737 -1.299V12.08C6 7.296 9.472 3.5 14.005 3.5 18.535 3.5 22 7.294 22 12.081l-0.005 1.827c0 0.307 0.2 0.663 0.739 1.297 0.067 0.08 0.13 0.154 0.27 0.314 1.07 1.239 1.496 1.955 1.496 3.07 0 0.5 -0.057 0.89 -0.294 1.357C23.7 20.94 22.618 21.5 21 21.5h-2.6zm-2.12 0h-4.56c0.451 1.043 1.178 1.5 2.28 1.5 1.102 0 1.829 -0.457 2.28 -1.5z" id="ga"/></defs><g fill="none" fill-rule="evenodd"><path opacity=".04" d="M0 0h28v28H0z"/><use fill="#99A2AD" fill-rule="nonzero" xlink:href="#ga"/></g></svg><svg width="28" height="28" viewBox="0 0 28 28" id="notifications_active_28" x="28" y="56" xmlns="http://www.w3.org/2000/svg"><defs><path d="M20.368 11.809C20.368 8.047 17.47 5 14.005 5c-3.467 0 -6.373 3.05 -6.373 6.806l0.004 1.944c0 0.793 -0.309 1.41 -0.905 2.096 -0.144 0.166 -0.648 0.703 -0.673 0.732C5.308 17.4 5 18.028 5 19.03c0 0.46 0.624 0.97 1.632 0.97h14.736c1.008 0 1.632 -0.51 1.632 -0.97 0 -1.003 -0.308 -1.63 -1.056 -2.453 -0.025 -0.028 -0.528 -0.566 -0.672 -0.732 -0.595 -0.686 -0.904 -1.303 -0.904 -2.095v-1.941zM18.873 22c-1.006 2.28 -2.667 3.5 -4.873 3.5 -2.206 0 -3.867 -1.22 -4.873 -3.5H6.632C4.599 22 3 20.693 3 19.03c0 -1.576 0.524 -2.64 1.579 -3.798 0.048 -0.053 0.527 -0.565 0.642 -0.697 0.31 -0.357 0.415 -0.568 0.415 -0.783l-0.004 -1.943C5.632 6.965 9.412 3 14.005 3c4.592 0 8.363 3.964 8.363 8.809v1.941c0 0.217 0.106 0.428 0.415 0.785 0.115 0.132 0.593 0.644 0.641 0.697C24.477 16.391 25 17.455 25 19.03c0 1.663 -1.599 2.97 -3.632 2.97h-2.495zm-2.256 0h-5.234c0.657 1.028 1.51 1.5 2.617 1.5 1.108 0 1.96 -0.472 2.617 -1.5z" id="ha"/></defs><g fill="none" fill-rule="evenodd"><path opacity=".04" d="M0 0h28v28H0z"/><use fill="#2975CC" fill-rule="nonzero" xlink:href="#ha"/></g></svg><svg width="28" height="28" viewBox="0 0 28 28" id="search_28" x="56" y="56" xmlns="http://www.w3.org/2000/svg"><defs><path d="M20.522 18.966l3.756 3.756a1.1 1.1 0 1 1 -1.556 1.556l-3.756 -3.756A9.56 9.56 0 0 1 13 22.6a9.6 9.6 0 1 1 9.6 -9.6 9.56 9.56 0 0 1 -2.078 5.966zM13 20.4a7.4 7.4 0 1 0 0 -14.8 7.4 7.4 0 0 0 0 14.8z" id="ia"/></defs><g fill="none" fill-rule="evenodd"><path opacity=".04" d="M0 0h28v28H0z"/><use fill="#99A2AD" fill-rule="nonzero" xlink:href="#ia"/></g></svg><svg width="28" height="28" viewBox="0 0 28 28" id="search_active_28" x="84" xmlns="http://www.w3.org/2000/svg"><defs><path d="M20.877 19.322l3.9 3.9a1.1 1.1 0 1 1 -1.555 1.556l-3.9 -3.9A10.058 10.058 0 0 1 13 23.1C7.422 23.1 2.9 18.578 2.9 13 2.9 7.422 7.422 2.9 13 2.9c5.578 0 10.1 4.522 10.1 10.1 0 2.393 -0.832 4.591 -2.223 6.322zM13 20.9a7.9 7.9 0 1 0 0 -15.8 7.9 7.9 0 0 0 0 15.8z" id="ja"/></defs><g fill="none" fill-rule="evenodd"><path opacity=".04" d="M0 0h28v28H0z"/><use fill="#2975CC" fill-rule="nonzero" xlink:href="#ja"/></g></svg><svg width="24" height="24" viewBox="0 0 24 24" id="services_blue_24" x="84" y="28" xmlns="http://www.w3.org/2000/svg"><path fill="#528bcc" d="M14.5 21h5a1.5 1.5 0 0 0 1.5 -1.5v-5a1.5 1.5 0 0 0 -1.5 -1.5h-5a1.5 1.5 0 0 0 -1.5 1.5v5a1.5 1.5 0 0 0 1.5 1.5zM11 19.5v-5A1.5 1.5 0 0 0 9.5 13h-5A1.5 1.5 0 0 0 3 14.5v5A1.5 1.5 0 0 0 4.5 21h5a1.5 1.5 0 0 0 1.5 -1.5zM4.5 11h5A1.5 1.5 0 0 0 11 9.5v-5A1.5 1.5 0 0 0 9.5 3h-5A1.5 1.5 0 0 0 3 4.5v5A1.5 1.5 0 0 0 4.5 11zm7.6 -2.6l3.5 3.5a1.5 1.5 0 0 0 2.1 0l3.5 -3.5a1.5 1.5 0 0 0 0 -2.1l-3.5 -3.5a1.5 1.5 0 0 0 -2.1 0l-3.5 3.5a1.5 1.5 0 0 0 0 2.1z"/></svg></svg>