<svg xmlns="http://www.w3.org/2000/svg" viewBox="0 0 16 12.02"><defs><style>.cls-1{fill:#7d9cb8;}</style></defs><title>messages_icon</title><g id="Слой_2" data-name="Слой 2"><g id="Слой_1-2" data-name="Слой 1"><path class="cls-1" d="M12.23,1.36A5.09,5.09,0,0,1,16,6a4.88,4.88,0,0,1-2.81,4.24A5.17,5.17,0,0,0,14,12c-1.58,0-2.42-.42-2.89-1.11A6.86,6.86,0,0,1,10,11a7.3,7.3,0,0,1-.94-.06A6.49,6.49,0,0,0,13.5,5,5.85,5.85,0,0,0,12.23,1.36Z"/><path class="cls-1" d="M4.88,9.91C4.41,10.59,3.57,11,2,11a4.8,4.8,0,0,0,.83-1.76A4.89,4.89,0,0,1,0,5C0,2.24,2.69,0,6,0s6,2.24,6,5-2.69,5-6,5A6.86,6.86,0,0,1,4.88,9.91Z"/></g></g></svg>