<svg xmlns="http://www.w3.org/2000/svg" xmlns:xlink="http://www.w3.org/1999/xlink" viewBox="0 0 16 11"><defs><style>.cls-1{fill:#fff;}.cls-2{mask:url(#mask);}.cls-3{fill:#7d9cb8;}</style><mask id="mask" x="-1" y="-113" width="18" height="1045" maskUnits="userSpaceOnUse"><g id="b"><path id="a" class="cls-1" d="M-1-113H17V932H-1Z"/></g></mask></defs><title>users_icon</title><g id="Слой_2" data-name="Слой 2"><g id="Слой_1-2" data-name="Слой 1"><g class="cls-2"><path class="cls-3" d="M0,10.1C0,8.6,0,6,5,6s5,2.7,5,4.1c0,.7-.2.9-1.4.9H1.5C.3,11,0,10.8,0,10.1Zm11.59.9a2.53,2.53,0,0,0,0-.28c0-1.37,0-3.34-1.47-4.69q.4,0,.87,0c4.5,0,5,2.7,5,4.1,0,.7-.2.9-1.4.9ZM5,5C3.9,5,3,4.17,3,2.5S3.9,0,5,0,7,.83,7,2.5,6.1,5,5,5Zm6,0C9.9,5,9,4.17,9,2.5S9.9,0,11,0s2,.83,2,2.5S12.1,5,11,5Z"/></g></g></g></svg>